<?xml version="1.0" encoding="UTF-8"?>
<svg id="Airplane" xmlns="http://www.w3.org/2000/svg" viewBox="0 0 512 512">
  <defs>
    <style>
      .cls-1 {
        fill: #fff;
        stroke-width: 0px;
      }
    </style>
  </defs>
  <circle class="cls-1" cx="256" cy="256" r="112.5"/>
  <rect class="cls-1" x="226" y="5" width="60" height="105" rx="30" ry="30"/>
  <rect class="cls-1" x="366.36" y="63.14" width="60" height="105" rx="30" ry="30" transform="translate(197.86 -246.4) rotate(45)"/>
  <rect class="cls-1" x="424.5" y="203.5" width="60" height="105" rx="30" ry="30" transform="translate(710.5 -198.5) rotate(90)"/>
  <rect class="cls-1" x="366.36" y="343.86" width="60" height="105" rx="30" ry="30" transform="translate(956.9 396.36) rotate(135)"/>
  <rect class="cls-1" x="226" y="402" width="60" height="105" rx="30" ry="30" transform="translate(512 909) rotate(-180)"/>
  <rect class="cls-1" x="85.64" y="343.86" width="60" height="105" rx="30" ry="30" transform="translate(-82.86 758.4) rotate(-135)"/>
  <rect class="cls-1" x="27.5" y="203.5" width="60" height="105" rx="30" ry="30" transform="translate(-198.5 313.5) rotate(-90)"/>
  <rect class="cls-1" x="85.64" y="63.14" width="60" height="105" rx="30" ry="30" transform="translate(-47.9 115.64) rotate(-45)"/>
</svg>